<?xml version="1.0" encoding="UTF-8"?>
<svg width="95px" height="95px" viewBox="0 0 512 512" version="1.1" xmlns="http://www.w3.org/2000/svg" xmlns:xlink="http://www.w3.org/1999/xlink">
    <title>Outline Logo</title>
    <g id="Outline-Logo" stroke="none" stroke-width="1" fill="none" fill-rule="evenodd">
        <path d="M256.5,7.5 C315.757027,7.5 375.013927,12.9678937 434.269505,23.9013236 C437.233352,24.448768 439.79086,26.0147389 441.607471,28.1973507 C443.424003,30.3798669 444.4997,33.1789802 444.5,36.1920874 L444.5,36.1920874 L444.5,375.3423 C444.499811,379.503365 442.429021,383.391614 438.97436,385.714035 C425.795541,394.577659 413.303632,402.910051 401.498619,410.711187 L401.498619,410.711187 L401.5,504 L381,504.5 L380.497321,424.512285 C309.014394,470.999905 267.738137,495.5 256.5,495.5 C245.102457,495.5 202.82662,470.344176 129.504964,422.554798 L129.504964,422.554798 L129.5,504 L109,504.5 L108.502359,408.727688 C97.5860984,401.501933 86.0940301,393.830822 74.0243172,385.713146 C70.5709795,383.391614 68.5001886,379.503365 68.5,375.34264 L68.5,375.34264 L68.5,36.1928351 C68.5003004,33.1789802 69.5759966,30.3798669 71.3925286,28.1973507 C73.20914,26.0147389 75.7666477,24.448768 78.7291092,23.9015794 C137.986073,12.9678937 197.242973,7.5 256.5,7.5 Z" id="Combined-Shape" stroke="#353535" stroke-width="15"></path>
        <path d="M101.110936,236.353022 L100.948209,235.978122 L100.781424,235.552852 L100.640625,235.151514 L100.612508,235.06564 C100.55995,234.90333 100.511029,234.740679 100.465447,234.577087 L100.373382,234.226902 L100.273633,233.791505 L100.203011,233.429522 L100.129455,232.97448 L100.084648,232.62824 L100.041058,232.182981 L100.019423,231.864351 L100,231.256061 L100.008366,230.669845 L100.020322,230.415542 L100.042372,230.096517 L100.062426,229.875231 C100.099254,229.503182 100.152318,229.133023 100.221636,228.765832 L100.252902,228.606224 C100.326416,228.242084 100.416176,227.880726 100.522075,227.523929 L100.623961,227.197295 L100.759995,226.804271 L100.949138,226.318949 L101.145092,225.872272 L101.222251,225.709086 L101.33059,225.489946 L101.479246,225.206794 L101.672561,224.864226 L101.899337,224.493634 L102.045943,224.269923 L102.268755,223.949981 L102.423651,223.740765 L102.611221,223.500012 L102.819222,223.248025 L188.434933,122.542168 C192.321675,117.970371 198.773367,117.801908 202.845192,122.165896 C206.842983,126.450539 207.060303,133.511307 203.388315,138.093579 L203.180314,138.345566 L124.653833,230.711425 L202.79034,313.219796 C206.890867,317.549771 207.088733,324.792208 203.232285,329.396232 C199.445954,333.916546 193.159136,334.212889 189.050872,330.124108 L188.824907,329.892441 L103.154345,239.427695 L102.984454,239.241405 L102.757337,238.978549 L102.440353,238.581633 L102.275159,238.359336 L102.122853,238.143944 L101.923467,237.844554 L101.755183,237.57505 L101.499769,237.131422 L101.302883,236.755156 L101.110936,236.353022 Z M411.889064,215.646978 L412.051791,216.021878 L412.218576,216.447148 L412.359375,216.848486 L412.387492,216.93436 C412.44005,217.09667 412.488971,217.259321 412.534553,217.422913 L412.626618,217.773098 L412.726367,218.208495 L412.796989,218.570478 L412.870545,219.02552 L412.915352,219.37176 L412.958942,219.817019 L412.980577,220.135649 L413,220.743939 L412.991634,221.330155 L412.979678,221.584458 L412.957628,221.903483 L412.937574,222.124769 C412.900746,222.496818 412.847682,222.866977 412.778364,223.234168 L412.747098,223.393776 C412.673584,223.757916 412.583824,224.119274 412.477925,224.476071 L412.376039,224.802705 L412.240005,225.195729 L412.050862,225.681051 L411.854908,226.127728 L411.777749,226.290914 L411.66941,226.510054 L411.520754,226.793206 L411.327439,227.135774 L411.100663,227.506366 L410.954057,227.730077 L410.731245,228.050019 L410.576349,228.259235 L410.388779,228.499988 L410.180778,228.751975 L324.565067,329.457832 C320.678325,334.029629 314.226633,334.198092 310.154808,329.834104 C306.157017,325.549461 305.939697,318.488693 309.611685,313.906421 L309.819686,313.654434 L388.346167,221.288575 L310.20966,138.780204 C306.109133,134.450229 305.911267,127.207792 309.767715,122.603768 C313.554046,118.083454 319.840864,117.787111 323.949128,121.875892 L324.175093,122.107559 L409.845655,212.572305 L410.015546,212.758595 L410.242663,213.021451 L410.559647,213.418367 L410.724841,213.640664 L410.877147,213.856056 L411.076533,214.155446 L411.244817,214.42495 L411.500231,214.868578 L411.697117,215.244844 L411.889064,215.646978 Z M266.935487,123.293367 C268.27787,116.823505 274.018212,112.805513 279.756899,114.318931 C285.40151,115.807539 288.942061,122.093221 287.779188,128.455769 L287.717112,128.773939 L247.064513,324.706633 C245.72213,331.176495 239.981788,335.194487 234.243101,333.681069 C228.59849,332.192461 225.057939,325.906779 226.220812,319.544231 L226.282888,319.226061 L266.935487,123.293367 Z" id="Combined-Shape" stroke="#353535" stroke-width="14" fill-rule="nonzero"></path>
    </g>
</svg>