<?xml version="1.0" encoding="UTF-8"?>
<svg width="600px" height="600px" viewBox="0 0 600 600" version="1.1" xmlns="http://www.w3.org/2000/svg" xmlns:xlink="http://www.w3.org/1999/xlink">
    <title>Square Medium Copy 2</title>
    <g id="Square-Medium-Copy-2" stroke="none" stroke-width="1" fill="none" fill-rule="evenodd">
        <path d="M299.5,7.5 C369.432346,7.5 439.364556,14.0333349 509.296532,27.0977415 C512.253873,27.6503454 514.804482,29.2172714 516.615881,31.3981745 C518.427326,33.5791333 519.499524,36.3740947 519.5,39.3815104 L519.5,39.3815104 L519.5,438.266232 C519.499401,442.426245 517.429232,446.313533 513.974675,448.635334 C506.42811,453.710491 499.073789,458.637054 491.913953,463.413528 L491.913953,463.413528 L488.024609,466.00617 C481.695786,470.221655 475.520082,474.318788 469.497495,478.297568 L469.497495,478.297568 L469.5,588 L443,588.5 L442.499848,496.016164 C360.140884,549.521728 312.52907,577.5 299.5,577.5 C286.257975,577.5 237.313878,548.649283 152.504336,493.41134 L152.504336,493.41134 L152.5,588 L126,588.5 L125.500916,475.651444 C112.686831,467.169969 99.1951571,458.164718 85.0235495,448.63414 C81.5707682,446.313533 79.5005994,442.426245 79.5,438.267313 L79.5,438.267313 L79.4999999,39.382696 C79.5004755,36.3740947 80.5726743,33.5791333 82.3841191,31.3981745 C84.1955177,29.2172714 86.7461271,27.6503454 89.703166,27.0977979 C159.635444,14.0333349 229.567654,7.5 299.5,7.5 Z" id="Combined-Shape" stroke="#FFFFFF" stroke-width="15"></path>
        <path d="M119.289105,274.546274 L119.10028,274.110058 L118.906747,273.615235 L118.743367,273.148257 L118.71074,273.048338 C118.649753,272.859482 118.592987,272.67023 118.540094,272.479882 L118.433264,272.072423 L118.317518,271.565816 L118.23557,271.14463 L118.150216,270.615166 L118.098224,270.212298 L118.047643,269.694216 L118.022538,269.323474 L118,268.615697 L118.009708,267.933605 L118.023581,267.63771 L118.049167,267.266508 L118.072437,267.00903 C118.115172,266.576132 118.176746,266.145433 118.257182,265.718187 L118.293462,265.532476 C118.378766,265.10878 118.482921,264.688322 118.605804,264.27317 L118.72403,263.893114 L118.881881,263.43581 L119.101359,262.871114 L119.328739,262.351382 L119.418273,262.161507 L119.543986,261.906526 L119.716483,261.577065 L119.940802,261.178469 L120.203947,260.747266 L120.374066,260.486966 L120.632612,260.114698 L120.812349,259.871264 L121.030002,259.591136 L121.271362,259.297936 L220.617894,142.121494 C225.127981,136.801974 232.614379,136.605959 237.339232,141.683683 C241.978178,146.669085 242.230352,154.884652 237.96946,160.21636 L237.7281,160.50956 L146.60775,267.981985 L237.275584,363.984716 C242.033742,369.022865 242.263341,377.449812 237.788406,382.80683 C233.394833,388.066448 226.099752,388.411259 221.332616,383.653752 L221.07041,383.384196 L121.66023,278.123813 L121.463093,277.907055 L121.199552,277.601208 L120.831731,277.139377 L120.640043,276.880722 L120.46331,276.630103 L120.231947,276.281747 L120.036675,275.968165 L119.740298,275.451981 L119.511836,275.014176 L119.289105,274.546274 Z M479.710895,250.453726 L479.89972,250.889942 L480.093253,251.384765 L480.256633,251.851743 L480.28926,251.951662 C480.350247,252.140518 480.407013,252.32977 480.459906,252.520118 L480.566736,252.927577 L480.682482,253.434184 L480.76443,253.85537 L480.849784,254.384834 L480.901776,254.787702 L480.952357,255.305784 L480.977462,255.676526 L481,256.384303 L480.990292,257.066395 L480.976419,257.36229 L480.950833,257.733492 L480.927563,257.99097 C480.884828,258.423868 480.823254,258.854567 480.742818,259.281813 L480.706538,259.467524 C480.621234,259.89122 480.517079,260.311678 480.394196,260.72683 L480.27597,261.106886 L480.118119,261.56419 L479.898641,262.128886 L479.671261,262.648618 L479.581727,262.838493 L479.456014,263.093474 L479.283517,263.422935 L479.059198,263.821531 L478.796053,264.252734 L478.625934,264.513034 L478.367388,264.885302 L478.187651,265.128736 L477.969998,265.408864 L477.728638,265.702064 L378.382106,382.878506 C373.872019,388.198026 366.385621,388.394041 361.660768,383.316317 C357.021822,378.330915 356.769648,370.115348 361.03054,364.78364 L361.2719,364.49044 L452.39225,257.018015 L361.724416,161.015284 C356.966258,155.977135 356.736659,147.550188 361.211594,142.19317 C365.605167,136.933552 372.900248,136.588741 377.667384,141.346248 L377.92959,141.615804 L477.33977,246.876187 L477.536907,247.092945 L477.800448,247.398792 L478.168269,247.860623 L478.359957,248.119278 L478.53669,248.369897 L478.768053,248.718253 L478.963325,249.031835 L479.259702,249.548019 L479.488164,249.985824 L479.710895,250.453726 Z M311.537985,143.8141 C313.096881,136.285533 319.763085,131.610051 326.427367,133.371119 C332.982398,135.103318 337.094007,142.417566 335.743573,149.821258 L335.671485,150.191492 L288.462015,378.1859 C286.903119,385.714467 280.236915,390.389949 273.572633,388.628881 C267.017602,386.896682 262.905993,379.582434 264.256427,372.178742 L264.328515,371.808508 L311.537985,143.8141 Z" id="Combined-Shape" stroke="#FFFFFF" stroke-width="14" fill-rule="nonzero"></path>
    </g>
</svg>