<?xml version="1.0" encoding="UTF-8"?>
<svg width="512px" height="512px" viewBox="0 0 512 512" version="1.1" xmlns="http://www.w3.org/2000/svg" xmlns:xlink="http://www.w3.org/1999/xlink">
    <title>Outline Logo</title>
    <g id="Outline-Logo" stroke="none" stroke-width="1" fill="none" fill-rule="evenodd">
        <g id="Light" transform="translate(61.000000, 0.000000)">
            <path d="M195.5,7.5 C254.757027,7.5 314.013927,12.9678937 373.269505,23.9013236 C376.233352,24.448768 378.79086,26.0147389 380.607471,28.1973507 C382.424003,30.3798669 383.4997,33.1789802 383.5,36.1920874 L383.5,36.1920874 L383.5,375.3423 C383.499811,379.503365 381.429021,383.391614 377.97436,385.714035 C364.79554,394.57766 352.303631,402.910052 340.498617,410.711188 L340.498617,410.711188 L340.5,504 L320,504.5 L319.497321,424.512285 C248.014394,470.999905 206.738137,495.5 195.5,495.5 C184.102457,495.5 141.82662,470.344176 68.5049636,422.554798 L68.5049636,422.554798 L68.5,504 L48,504.5 L47.5023593,408.727688 C36.5860984,401.501933 25.0940301,393.830822 13.0243172,385.713146 C9.57097945,383.391614 7.5001886,379.503365 7.5,375.34264 L7.5,375.34264 L7.49999996,36.1928351 C7.50030043,33.1789802 8.5759966,30.3798669 10.3925286,28.1973507 C12.20914,26.0147389 14.7666477,24.448768 17.7291092,23.9015794 C76.9860728,12.9678937 136.242973,7.5 195.5,7.5 Z" id="Combined-Shape-Copy-2" stroke="#EDEDED" stroke-width="15"></path>
            <path d="M35.1528578,232.191673 L34.9839906,231.80451 L34.8109117,231.365329 L34.6647997,230.950863 L34.635621,230.86218 C34.5810802,230.69456 34.5303133,230.52659 34.4830108,230.357646 L34.3874717,229.996006 L34.283959,229.546367 L34.2106721,229.172543 L34.1343399,228.702618 L34.0878427,228.345051 L34.0426074,227.885228 L34.0201556,227.556175 L34,226.927988 L34.0086821,226.322597 L34.0210888,226.059976 L34.0439706,225.730515 L34.0647814,225.501991 C34.1029992,225.117772 34.158066,224.735505 34.2299997,224.356303 L34.2624458,224.191475 C34.3387337,223.815423 34.431881,223.442245 34.541776,223.073777 L34.6475065,222.736458 L34.7886738,222.330579 L34.984955,221.829382 L35.1883032,221.368094 L35.2683739,221.19957 L35.3808008,220.973262 L35.5350664,220.680848 L35.7356766,220.327075 L35.9710098,219.94436 L36.1231487,219.713331 L36.3543682,219.382924 L36.5151092,219.166864 L36.7097576,218.918237 L36.9256081,218.658007 L125.7721,114.658033 C129.805511,109.936691 136.500664,109.762719 140.726142,114.269454 C144.874794,118.694248 145.100314,125.985976 141.289761,130.718135 L141.073911,130.978365 L59.5841665,226.365537 L140.669221,311.57278 C144.924485,316.04439 145.129817,323.523729 141.127842,328.278352 C137.198631,332.946527 130.674575,333.252563 126.411283,329.030037 L126.17679,328.790792 L37.2733765,235.366918 L37.0970747,235.174535 L36.8613876,234.903081 L36.5324422,234.493182 L36.361014,234.263613 L36.2029604,234.041176 L35.9960504,233.731992 L35.8214166,233.453673 L35.5563642,232.995534 L35.3520484,232.60696 L35.1528578,232.191673 Z M355.847142,210.808327 L356.016009,211.19549 L356.189088,211.634671 L356.3352,212.049137 L356.364379,212.13782 C356.41892,212.30544 356.469687,212.47341 356.516989,212.642354 L356.612528,213.003994 L356.716041,213.453633 L356.789328,213.827457 L356.86566,214.297382 L356.912157,214.654949 L356.957393,215.114772 L356.979844,215.443825 L357,216.072012 L356.991318,216.677403 L356.978911,216.940024 L356.956029,217.269485 L356.935219,217.498009 C356.897001,217.882228 356.841934,218.264495 356.77,218.643697 L356.737554,218.808525 C356.661266,219.184577 356.568119,219.557755 356.458224,219.926223 L356.352493,220.263542 L356.211326,220.669421 L356.015045,221.170618 L355.811697,221.631906 L355.731626,221.80043 L355.619199,222.026738 L355.464934,222.319152 L355.264323,222.672925 L355.02899,223.05564 L354.876851,223.286669 L354.645632,223.617076 L354.484891,223.833136 L354.290242,224.081763 L354.074392,224.341993 L265.2279,328.341967 C261.194489,333.063309 254.499336,333.237281 250.273858,328.730546 C246.125206,324.305752 245.899686,317.014024 249.710239,312.281865 L249.926089,312.021635 L331.415833,216.634463 L250.330779,131.42722 C246.075515,126.95561 245.870183,119.476271 249.872158,114.721648 C253.801369,110.053473 260.325425,109.747437 264.588717,113.969963 L264.82321,114.209208 L353.726624,207.633082 L353.902925,207.825465 L354.138612,208.096919 L354.467558,208.506818 L354.638986,208.736387 L354.79704,208.958824 L355.00395,209.268008 L355.178583,209.546327 L355.443636,210.004466 L355.647952,210.39304 L355.847142,210.808327 Z M206.255987,115.589065 C207.641672,108.913343 213.567186,104.767506 219.490993,106.329079 C225.317687,107.865051 228.972451,114.350733 227.772065,120.915725 L227.707987,121.244018 L185.744013,323.410935 C184.358328,330.086657 178.432814,334.232494 172.509007,332.670921 C166.682313,331.134949 163.027549,324.649267 164.227935,318.084275 L164.292013,317.755982 L206.255987,115.589065 Z" id="Combined-Shape" fill="#EDEDED" fill-rule="nonzero"></path>
        </g>
    </g>
</svg>